<svg width="19" height="18" viewBox="0 0 19 18" fill="none" xmlns="http://www.w3.org/2000/svg">
<g id="akar-icons:comment">
<g id="Group">
<path id="Vector" d="M11.2592 14.1852C14.0525 14.1852 15.4496 14.1852 16.317 13.317C17.1851 12.4496 17.1851 11.0526 17.1851 8.25926C17.1851 5.46593 17.1851 4.06889 16.317 3.20148C15.4496 2.33334 14.0525 2.33334 11.2592 2.33334H8.29623C5.50289 2.33334 4.10586 2.33334 3.23845 3.20148C2.3703 4.06889 2.3703 5.46593 2.3703 8.25926C2.3703 11.0526 2.3703 12.4496 3.23845 13.317C3.72215 13.8015 4.3703 14.0156 5.33326 14.1096" stroke="#D9D8D8" stroke-width="1.48148" stroke-linecap="round" stroke-linejoin="round"/>
<path id="Vector_2" d="M11.2591 14.1852C10.3435 14.1852 9.33465 14.5555 8.41391 15.0333C6.93391 15.8015 6.19391 16.1859 5.82946 15.9407C5.46502 15.6963 5.53391 14.937 5.67243 13.4192L5.70354 13.0741" stroke="#D9D8D8" stroke-width="1.48148" stroke-linecap="round"/>
</g>
</g>
</svg>
