<svg width="20" height="20" viewBox="0 0 20 20" fill="none" xmlns="http://www.w3.org/2000/svg">
<g id="ant-design:like-outlined">
<path id="Vector" d="M17.3027 10.4238C17.6309 9.99023 17.8125 9.45898 17.8125 8.90625C17.8125 8.0293 17.3223 7.19922 16.5332 6.73633C16.3301 6.61718 16.0988 6.55447 15.8633 6.55469H11.1797L11.2969 4.1543C11.3242 3.57422 11.1191 3.02344 10.7207 2.60351C10.5252 2.39654 10.2893 2.23186 10.0276 2.11966C9.76588 2.00746 9.48395 1.95011 9.19922 1.95117C8.18359 1.95117 7.28516 2.63476 7.01562 3.61328L5.33789 9.6875H2.8125C2.4668 9.6875 2.1875 9.9668 2.1875 10.3125V17.4219C2.1875 17.7676 2.4668 18.0469 2.8125 18.0469H14.5566C14.7363 18.0469 14.9121 18.0117 15.0742 17.9414C16.0039 17.5449 16.6035 16.6367 16.6035 15.6289C16.6035 15.3828 16.5684 15.1406 16.498 14.9062C16.8262 14.4727 17.0078 13.9414 17.0078 13.3887C17.0078 13.1426 16.9727 12.9004 16.9023 12.666C17.2305 12.2324 17.4121 11.7012 17.4121 11.1484C17.4082 10.9023 17.373 10.6582 17.3027 10.4238ZM3.59375 16.6406V11.0937H5.17578V16.6406H3.59375ZM16.0234 9.74609L15.5957 10.1172L15.8672 10.6133C15.9566 10.7767 16.003 10.9602 16.002 11.1465C16.002 11.4687 15.8613 11.7754 15.6191 11.9863L15.1914 12.3574L15.4629 12.8535C15.5523 13.0169 15.5987 13.2004 15.5977 13.3867C15.5977 13.709 15.457 14.0156 15.2148 14.2266L14.7871 14.5977L15.0586 15.0937C15.148 15.2572 15.1944 15.4407 15.1934 15.627C15.1934 16.0645 14.9355 16.459 14.5371 16.6387H6.42578V11.0312L8.36914 3.99023C8.41925 3.80977 8.52682 3.65055 8.67555 3.53671C8.82428 3.42287 9.00607 3.36062 9.19336 3.35937C9.3418 3.35937 9.48828 3.40234 9.60547 3.49023C9.79883 3.63476 9.90234 3.85351 9.89062 4.08594L9.70312 7.96094H15.8438C16.1914 8.17383 16.4062 8.5332 16.4062 8.90625C16.4062 9.22851 16.2656 9.5332 16.0234 9.74609Z" fill="#FFC0CB"/>
</g>
</svg>
