<svg width="56" height="56" viewBox="0 0 56 56" fill="none" xmlns="http://www.w3.org/2000/svg">
<g id="Group 74">
<path id="Vector" d="M32.9054 12.1084C30.4534 14.4868 29.0999 17.3524 28.9371 20.7417C28.8084 23.2553 29.4637 25.7465 30.8124 27.8708C33.4537 32.1299 38.8869 34.8693 45.075 33.1978C45.8214 35.5095 45.6813 38.0166 44.6818 40.2312C43.7233 42.4168 42.0954 43.9894 40.0339 45.1575C37.3824 46.6595 34.7655 48.2224 32.1062 49.7127C28.8229 51.5581 25.0457 49.888 24.4712 46.3284C24.1563 44.3712 24.746 42.6617 26.4087 41.5211C27.9115 40.4905 29.5233 39.6216 31.1763 38.6271L21.2213 21.3722C19.8479 22.1619 18.4882 22.9403 17.1311 23.7226C15.351 24.7496 13.5431 24.8236 11.7666 23.7714C8.77089 21.9865 8.47392 17.4332 11.4076 15.5593C14.7962 13.3527 18.3145 11.3522 21.9436 9.56879C25.3122 7.9509 29.8287 8.79518 32.9054 12.1084Z" fill="#F09E54"/>
<path id="Vector_2" d="M45.32 14.7218C48.7949 16.728 49.9971 21.3776 47.9547 24.8693C45.8236 28.5145 41.2316 29.8405 37.7444 27.8223C34.1323 25.7369 32.8483 21.1581 34.7726 17.6874C36.9373 13.7797 41.8901 12.6837 45.32 14.7218Z" fill="#F09E54"/>
</g>
</svg>
