<svg width="131" height="136" viewBox="0 0 131 136" fill="none" xmlns="http://www.w3.org/2000/svg">
<g id="Group 5">
<path id="Vector" d="M100.934 20.4016H112.746V32.2131H100.934V20.4016Z" fill="#CE6D2D"/>
<path id="Vector_2" d="M119.189 32.2131H131V44.0246H119.189V32.2131Z" fill="#CE6D2D"/>
<path id="Vector_3" d="M109.525 97.7131H121.336V110.598H109.525V97.7131Z" fill="#CE6D2D"/>
<path id="Vector_4" d="M100.934 74.0902H112.746V86.9755H100.934V74.0902Z" fill="#CE6D2D"/>
<path id="Vector_5" d="M89.1229 90.1968H100.934V103.082H89.1229V90.1968Z" fill="#CE6D2D"/>
<path id="Vector_6" d="M85.9016 10.7377H97.7131V23.6229H85.9016V10.7377Z" fill="#CE6D2D"/>
<path id="Vector_7" d="M102.008 46.1721H113.82V59.0574H102.008V46.1721Z" fill="#CE6D2D"/>
<path id="Vector_8" d="M86.9754 57.9836H99.8606V70.8689H86.9754V57.9836Z" fill="#CE6D2D"/>
<path id="Vector_9" d="M85.9016 84.8278V73.0164L74.0901 73.0256V84.8278L85.9016 84.8278Z" fill="#CE6D2D"/>
<path id="Vector_10" d="M100.823 131.693C98.6484 124.475 97.1168 117.077 96.2459 109.588H82.5266V97.3992H70.34V85.2046H58.1501V73.0111H70.34V60.7072H82.5394V48.5689H94.7249V36.3722L82.553 36.3594V24.2127L70.3313 24.2053V12.0085L82.535 11.9788V3.33631C76.7082 1.45033 70.6543 0.357028 64.5354 0.0871978C34.6427 -1.45984 9.0432 17.7475 9.86706 44.2365C9.9754 47.7332 10.5872 52.8822 10.5723 56.2461C10.5447 68.1964 0.209359 73.1051 0.0105999 76.9091C-0.316524 83.1546 7.01748 81.2038 9.60353 90.0388C12.8865 101.255 8.17605 114.046 23.4599 113.255C29.5564 113.01 39.4637 110.643 43.7102 114.593C46.4175 117.111 48.5982 128.102 49.4487 132.966L49.4476 132.965C49.6845 134.315 50.8581 135.298 52.2284 135.295H98.1089C98.9958 135.298 99.8327 134.882 100.366 134.173C100.9 133.464 101.07 132.546 100.824 131.693L100.823 131.693ZM46.7577 36.4097H34.5679V24.2119H46.7577V36.4097ZM58.9392 28.8743H71.1279V41.0689H58.9381L58.9392 28.8743ZM49.8177 57.5329V45.3372H62.0076V57.5329H49.8177ZM65.1812 112.473H52.9924V100.276H65.1812V112.473Z" fill="#CE6D2D"/>
</g>
</svg>
