<?xml version="1.0" standalone="no"?>
<!DOCTYPE svg PUBLIC "-//W3C//DTD SVG 20010904//EN"
 "http://www.w3.org/TR/2001/REC-SVG-20010904/DTD/svg10.dtd">
<svg version="1.0" xmlns="http://www.w3.org/2000/svg"
 width="401.000000pt" height="397.000000pt" viewBox="0 0 401.000000 397.000000"
 preserveAspectRatio="xMidYMid meet">

<g transform="translate(0.000000,397.000000) scale(0.100000,-0.100000)"
fill="#000000" stroke="none">
<path d="M1855 3831 c-102 -27 -161 -50 -335 -128 -193 -88 -222 -100 -395
-164 -428 -158 -535 -269 -710 -734 -38 -99 -97 -243 -133 -320 -125 -272
-162 -394 -162 -540 0 -145 37 -270 155 -525 37 -80 101 -235 142 -345 97
-261 148 -357 241 -457 111 -117 234 -187 494 -282 129 -47 209 -80 397 -166
397 -180 571 -177 993 21 72 33 234 101 360 150 472 182 558 272 749 779 34
91 89 223 121 295 122 264 158 386 158 530 0 146 -37 269 -162 540 -36 77 -96
221 -133 320 -106 284 -175 408 -277 500 -106 96 -187 139 -468 247 -113 44
-277 112 -365 153 -238 109 -332 137 -480 141 -94 3 -135 0 -190 -15z m-985
-2181 l0 -60 40 0 40 0 0 60 0 60 30 0 30 0 0 -160 0 -160 -30 0 -30 0 0 70 0
70 -40 0 -39 0 -3 -67 -3 -68 -30 0 -30 0 -3 158 -3 157 36 0 35 0 0 -60z
m369 28 c18 -59 71 -264 71 -277 0 -7 -10 -11 -27 -9 -20 2 -29 11 -38 38 -10
30 -17 35 -47 38 -33 3 -35 1 -47 -37 -10 -36 -15 -41 -42 -41 -24 0 -29 4
-25 18 2 9 22 81 43 160 l37 142 32 0 c28 0 34 -5 43 -32z m301 22 c27 -14 44
-79 36 -134 -8 -54 -42 -86 -92 -86 -32 0 -33 -2 -36 -42 -3 -39 -6 -43 -30
-46 l-28 -3 0 160 0 161 66 0 c36 0 74 -5 84 -10z m270 -8 c16 -13 24 -32 27
-69 10 -95 -24 -143 -97 -143 -29 0 -30 -2 -30 -45 0 -43 -1 -45 -30 -45 l-30
0 0 160 0 160 69 0 c52 0 74 -5 91 -18z m157 -24 l20 -43 22 43 c18 35 26 42
51 42 l29 0 -34 -81 c-30 -69 -35 -92 -35 -160 l0 -79 -30 0 -30 0 0 74 c0 64
-5 86 -35 152 -19 42 -35 80 -35 85 0 5 13 9 28 9 23 0 32 -8 49 -42z m435
-85 l3 -128 53 -3 c50 -3 52 -4 52 -33 l0 -29 -85 0 -85 0 0 160 0 160 30 0
29 0 3 -127z m246 -30 l-3 -158 -30 0 -30 0 -3 158 -3 157 36 0 36 0 -3 -157z
m186 85 l34 -73 1 73 1 72 35 0 36 0 -3 -157 -3 -158 -28 -3 c-25 -3 -30 2
-66 80 l-39 83 -1 -82 -1 -83 -30 0 -30 0 0 160 0 160 30 0 c28 0 33 -6 64
-72z m258 20 l3 -52 35 52 c30 44 40 52 68 52 17 0 32 -2 32 -5 0 -3 -16 -27
-35 -54 l-36 -49 41 -101 c22 -56 40 -104 40 -106 0 -3 -15 -5 -34 -5 -34 0
-35 2 -57 68 -28 86 -30 89 -46 67 -7 -11 -13 -44 -13 -77 0 -58 0 -58 -30
-58 l-30 0 0 160 0 160 29 0 c29 0 30 -2 33 -52z m-2002 -578 c26 0 29 4 33
38 2 20 4 -1 4 -48 0 -47 -2 -66 -4 -42 -4 39 -6 42 -33 42 -27 0 -29 -3 -33
-42 -2 -24 -4 -5 -4 42 0 47 2 68 4 48 4 -34 7 -38 33 -38z m128 63 c-34 -4
-38 -7 -38 -34 0 -27 3 -29 38 -31 l37 -1 -38 -4 c-36 -4 -38 -6 -35 -36 3
-28 8 -33 38 -39 l35 -6 -40 1 -40 2 -3 78 -3 77 43 -2 43 -1 -37 -4z m140 -5
c29 -29 7 -78 -34 -78 -18 0 -24 -7 -27 -32 -2 -18 -5 2 -5 45 l-2 77 28 0
c15 0 33 -5 40 -12z m110 5 c-34 -4 -38 -7 -38 -34 0 -26 4 -29 33 -31 l32 -1
-32 -4 c-30 -4 -33 -7 -33 -38 0 -31 3 -34 33 -38 31 -4 31 -4 -5 -5 l-38 -2
0 80 0 80 43 -2 42 -1 -37 -4z m195 0 c-21 -4 -23 -10 -25 -81 l-2 -77 -3 77
c-3 62 -7 78 -21 81 -9 3 3 5 28 4 25 0 35 -2 23 -4z m69 -2 c-9 -5 -12 -27
-10 -72 3 -61 4 -64 28 -64 23 0 25 4 28 58 2 35 -2 64 -9 73 -8 10 -8 14 0
14 28 0 27 -136 -1 -154 -33 -20 -53 4 -56 69 -3 65 1 85 20 85 10 0 10 -2 0
-9z m299 -5 c-7 -9 -11 -38 -9 -73 3 -54 5 -58 28 -58 24 0 25 3 28 64 2 44
-1 67 -10 73 -10 7 -10 9 2 5 11 -3 16 -22 18 -75 3 -69 2 -72 -23 -78 -39
-10 -55 11 -55 71 0 59 7 85 22 85 6 0 6 -6 -1 -14z m137 -31 c28 -59 28 -72
-1 -20 l-22 40 -6 -65 -6 -65 -1 78 c-1 42 2 77 6 77 4 0 18 -20 30 -45z m52
-37 c-1 -75 -2 -81 -15 -64 -17 23 -20 40 -5 31 6 -4 10 17 10 54 0 34 2 61 5
61 3 0 5 -37 5 -82z m103 75 c-21 -4 -23 -10 -25 -76 l-2 -72 -3 72 c-3 57 -7
73 -21 76 -9 3 3 5 28 4 25 0 35 -2 23 -4z m125 -5 c7 -7 12 -21 11 -32 -1
-18 -2 -17 -8 4 -5 18 -15 26 -34 28 -25 3 -27 1 -27 -33 0 -36 1 -37 30 -33
22 3 27 1 20 -7 -5 -7 -7 -16 -3 -21 4 -5 1 -3 -7 4 -24 20 -39 14 -43 -20 -2
-18 -5 2 -5 45 l-2 77 28 0 c15 0 33 -5 40 -12z m69 -110 c-2 -24 -4 -5 -4 42
0 47 2 66 4 43 2 -24 2 -62 0 -85z m111 110 c7 -7 12 -19 11 -27 0 -11 -3 -10
-8 4 -4 11 -21 23 -37 26 -28 6 -28 7 -3 8 14 0 30 -4 37 -11z m59 -80 c-2
-18 -4 -4 -4 32 0 36 2 50 4 33 2 -18 2 -48 0 -65z m80 10 c-2 -18 -4 -6 -4
27 0 33 2 48 4 33 2 -15 2 -42 0 -60z m101 75 c-15 -4 -18 -17 -20 -76 l-2
-72 -3 72 c-4 65 -6 72 -26 76 -12 2 -2 4 23 4 25 1 37 -1 28 -4z m100 0 c-34
-4 -38 -7 -38 -34 0 -27 3 -29 38 -31 l37 -1 -37 -4 c-36 -4 -38 -6 -38 -38 0
-31 3 -34 33 -38 31 -4 31 -4 -5 -5 l-38 -2 0 80 0 80 43 -2 42 -1 -37 -4z
m-1071 -95 c-2 -18 -4 -6 -4 27 0 33 2 48 4 33 2 -15 2 -42 0 -60z m733 26 c7
-7 -2 -9 -25 -6 -19 2 -35 7 -35 11 0 10 49 6 60 -5z m-1260 -68 c0 -12 -5 -7
-19 24 -11 24 -11 24 3 6 9 -11 16 -24 16 -30z m1088 -1 c-3 -3 -9 2 -12 12
-6 14 -5 15 5 6 7 -7 10 -15 7 -18z m286 4 c10 8 16 9 16 3 0 -6 -8 -13 -19
-17 -21 -6 -51 3 -51 16 0 5 9 4 19 -3 15 -9 23 -9 35 1z m-813 -17 c-7 -2
-18 1 -23 6 -8 8 -4 9 13 5 13 -4 18 -8 10 -11z m672 1 c-7 -2 -19 -2 -25 0
-7 3 -2 5 12 5 14 0 19 -2 13 -5z"/>
<path d="M834 1555 c0 -77 1 -110 3 -72 l4 67 64 0 64 0 4 -67 c2 -38 3 -5 3
72 0 77 -1 110 -3 73 l-4 -68 -64 0 -64 0 -4 68 c-2 37 -3 4 -3 -73z"/>
<path d="M1170 1620 c-12 -39 -19 -74 -17 -76 3 -3 13 25 23 62 l18 68 13 -30
14 -29 -6 30 c-11 55 -23 48 -45 -25z"/>
<path d="M1222 1600 c0 -8 6 -31 13 -50 7 -19 13 -28 13 -20 0 8 -6 31 -13 50
-7 19 -13 28 -13 20z"/>
<path d="M1186 1568 c-10 -38 -7 -48 14 -48 17 0 19 4 14 28 -9 39 -20 47 -28
20z"/>
<path d="M1137 1506 c-5 -15 -6 -31 -2 -34 3 -3 5 0 5 7 0 8 17 11 57 9 54 -3
57 -4 69 -38 16 -43 18 -30 3 19 l-11 36 -53 -3 c-45 -3 -54 -1 -57 15 -3 13
-6 11 -11 -11z"/>
<path d="M1117 1441 c-4 -17 -3 -21 5 -13 5 5 8 16 6 23 -3 8 -7 3 -11 -10z"/>
<path d="M1412 1553 c1 -76 3 -119 5 -96 4 40 6 42 41 46 l37 4 -37 1 -38 2 0
85 0 85 44 0 c60 0 76 -18 76 -85 0 -44 -4 -57 -22 -69 -18 -13 -19 -16 -6
-16 25 0 38 32 38 93 0 70 -18 87 -88 87 l-52 0 2 -137z"/>
<path d="M1450 1596 c0 -47 3 -56 18 -56 33 0 43 15 40 61 -3 40 -6 44 -30 47
-28 3 -28 2 -28 -52z"/>
<path d="M1672 1553 c1 -76 3 -119 5 -97 l4 42 51 4 c64 7 78 24 78 98 0 73
-17 90 -88 90 l-52 0 2 -137z m116 115 c7 -7 12 -38 12 -70 0 -50 -3 -60 -24
-73 -14 -9 -39 -15 -58 -13 l-33 3 -3 83 -3 82 49 0 c26 0 53 -5 60 -12z"/>
<path d="M1710 1595 c0 -48 3 -55 19 -55 11 0 27 7 35 16 32 31 12 94 -29 94
-24 0 -25 -3 -25 -55z"/>
<path d="M1920 1687 c0 -4 14 -34 30 -67 25 -49 30 -73 31 -132 1 -40 3 -66 5
-58 6 27 10 149 5 144 -3 -3 -20 23 -38 58 -17 35 -32 59 -33 55z"/>
<path d="M2022 1645 c-30 -62 -27 -71 4 -12 14 27 24 51 22 53 -3 2 -14 -17
-26 -41z"/>
<path d="M2372 1558 l-2 -138 63 2 62 2 -57 3 -57 4 -4 132 -3 132 -2 -137z"/>
<path d="M2614 1555 c0 -77 2 -107 3 -67 2 40 2 103 0 140 -2 37 -3 4 -3 -73z"/>
<path d="M2901 1570 l-2 -125 -60 119 c-33 65 -62 116 -64 114 -2 -2 26 -62
63 -133 l67 -130 3 73 c2 40 1 103 -1 140 -2 42 -4 20 -6 -58z"/>
<path d="M3129 1618 c-29 -40 -56 -74 -61 -76 -4 -2 -8 -9 -8 -15 0 -7 15 6
33 27 l33 39 33 -87 c18 -48 35 -86 37 -83 2 2 -12 43 -31 92 l-35 89 23 30
c29 39 39 56 33 56 -2 0 -28 -33 -57 -72z"/>
<path d="M1300 1105 c0 -34 2 -36 28 -33 23 3 27 8 27 33 0 25 -4 30 -27 33
-26 3 -28 1 -28 -33z"/>
</g>
</svg>
