<svg xmlns="http://www.w3.org/2000/svg" xmlns:xlink="http://www.w3.org/1999/xlink" version="1.1" x="0px" y="0px" viewBox="0 0 512 640" style="enable-background:new 0 0 512 512;" xml:space="preserve"><g><path d="M409.7,106.5c18,0,32.7-14.7,32.7-32.7V57.9c0-18-14.7-32.7-32.7-32.7S377,39.9,377,57.9v15.9   C377,91.8,391.7,106.5,409.7,106.5z"/><path d="M99.5,103.5L99.5,103.5c18,0,32.7-14.7,32.7-32.7V54.9c0-18-14.7-32.7-32.7-32.7c-18,0-32.7,14.7-32.7,32.7v15.9   C66.8,88.8,81.5,103.5,99.5,103.5z"/><polygon points="100.3,146.1 103.4,136.1 97.2,136.1  "/><path d="M147.4,134.9h-4.7l-14.4,50.9c-0.8,2.7-3.1,4.7-5.9,5c-2.8,0.3-5.5-1.1-6.9-3.5l-14.5-25.8h-1.1L86.5,187   c-0.1,0.2-0.2,0.3-0.3,0.5c-1.5,2.4-4.2,3.6-7,3.2c-2.8-0.4-5-2.4-5.7-5.2l-13.2-50.7h-5.9c-9.7,0-18.9,4.1-25.4,11.3   c-6.5,7.2-9.6,16.8-8.7,26.4c0,0.2,0,0.5,0,0.7v98l31.7,43.2c0.8,1.1,1.3,2.4,1.3,3.8l7.1,152.3c0.3,9.1,7.7,16.2,16.7,16.2h47.5   c9.1,0,16.4-7.1,16.7-16.1l7.1-152.4c0.1-1.4,0.5-2.7,1.3-3.8l31.5-43.3v-98c0-0.2,0-0.5,0-0.7c1-9.6-2.2-19.2-8.7-26.4   C166.3,139,157.1,134.9,147.4,134.9z"/><path d="M457.6,137.9h-7.8l-34.6,24.6c-0.2,0.1-0.3,0.2-0.5,0.4c-0.4,0.3-0.9,0.5-1.4,0.6c0,0,0,0,0,0c-0.7,0.2-1.4,0.3-2.1,0.3   c0,0,0,0,0,0c0,0,0,0,0,0c-0.8,0-1.5-0.1-2.3-0.4c0,0,0,0,0,0c-0.5-0.2-1-0.4-1.4-0.7c-0.2-0.1-0.4-0.2-0.5-0.4l-33.3-24.6h-9   c-9.7,0-18.9,4.1-25.4,11.3c-6.5,7.2-9.6,16.8-8.7,26.4c0,0.2,0,0.5,0,0.7v98l31.7,43.2c0.8,1.1,1.3,2.4,1.3,3.8l7.1,152.3   c0.3,9.1,7.7,16.2,16.7,16.2h47.5c9.1,0,16.4-7.1,16.7-16.1l7.1-152.4c0.1-1.4,0.5-2.7,1.3-3.8l31.5-43.3v-98c0-0.2,0-0.5,0-0.7   c1-9.6-2.2-19.2-8.7-26.4C476.5,142,467.2,137.9,457.6,137.9z"/><path d="M301.8,211.7l-74.7-0.2l14.6-14.6c2.7-2.7,2.7-7.2,0-9.9c-2.7-2.7-7.2-2.7-9.9,0l-26.5,26.5c-0.3,0.3-0.6,0.6-0.8,0.9   c0,0,0,0.1-0.1,0.1c-0.1,0.1-0.2,0.3-0.3,0.5c0,0-0.1,0.1-0.1,0.1c-0.1,0.1-0.1,0.3-0.2,0.5c0,0.1-0.1,0.1-0.1,0.2   c-0.1,0.1-0.1,0.3-0.2,0.4c0,0.1,0,0.1-0.1,0.2c0,0.2-0.1,0.3-0.1,0.5c0,0.1,0,0.1,0,0.2c0,0.2-0.1,0.4-0.1,0.6c0,0,0,0.1,0,0.1   c0,0.5,0,0.9,0,1.4c0,0,0,0,0,0c0,0.2,0.1,0.4,0.1,0.6c0,0.1,0,0.1,0,0.2c0,0.2,0.1,0.3,0.1,0.5c0,0.1,0.1,0.1,0.1,0.2   c0,0.1,0.1,0.3,0.2,0.4c0,0.1,0.1,0.1,0.1,0.2c0.1,0.1,0.1,0.3,0.2,0.4c0,0.1,0.1,0.1,0.1,0.2c0.1,0.1,0.2,0.3,0.3,0.4   c0,0.1,0.1,0.1,0.1,0.2c0.1,0.1,0.2,0.3,0.3,0.4c0.1,0.1,0.1,0.1,0.2,0.2c0.1,0.1,0.2,0.2,0.3,0.3l26.5,26.5   c1.4,1.4,3.2,2.1,4.9,2.1s3.6-0.7,4.9-2.1c2.7-2.7,2.7-7.2,0-9.9l-14.5-14.5l74.6,0.2c0,0,0,0,0,0c3.9,0,7-3.1,7-7   C308.8,214.8,305.7,211.7,301.8,211.7z"/><path d="M308.7,292.8c0-0.2-0.1-0.4-0.1-0.6c0-0.1,0-0.1,0-0.2c0-0.2-0.1-0.3-0.1-0.5c0-0.1-0.1-0.1-0.1-0.2c0-0.1-0.1-0.3-0.2-0.4   c0-0.1-0.1-0.1-0.1-0.2c-0.1-0.1-0.1-0.3-0.2-0.4c0-0.1-0.1-0.1-0.1-0.2c-0.1-0.1-0.2-0.3-0.3-0.4c0-0.1-0.1-0.1-0.1-0.2   c-0.1-0.1-0.2-0.3-0.3-0.4c-0.1-0.1-0.1-0.2-0.2-0.2c-0.1-0.1-0.2-0.2-0.2-0.3L280.2,262c-2.7-2.7-7.2-2.7-9.9,0   c-2.7,2.7-2.7,7.2,0,9.9l14.5,14.5l-74.6-0.2c0,0,0,0,0,0c-3.9,0-7,3.1-7,7c0,3.9,3.1,7,7,7l74.7,0.2L270.3,315   c-2.7,2.7-2.7,7.2,0,9.9c1.4,1.4,3.2,2,5,2s3.6-0.7,5-2l26.5-26.5c0.3-0.3,0.6-0.6,0.8-0.9c0,0,0-0.1,0.1-0.1   c0.1-0.1,0.2-0.3,0.3-0.5c0,0,0.1-0.1,0.1-0.1c0.1-0.1,0.1-0.3,0.2-0.5c0-0.1,0.1-0.1,0.1-0.2c0.1-0.1,0.1-0.3,0.2-0.4   c0-0.1,0-0.1,0.1-0.2c0-0.2,0.1-0.3,0.1-0.5c0-0.1,0-0.1,0-0.2c0-0.2,0.1-0.4,0.1-0.5c0,0,0-0.1,0-0.1   C308.8,293.7,308.8,293.3,308.7,292.8C308.7,292.8,308.7,292.8,308.7,292.8z"/></g><text x="0" y="527" fill="#000000" font-size="5px" font-weight="bold" font-family="'Helvetica Neue', Helvetica, Arial-Unicode, Arial, Sans-serif">Created by icongeek</text><text x="0" y="532" fill="#000000" font-size="5px" font-weight="bold" font-family="'Helvetica Neue', Helvetica, Arial-Unicode, Arial, Sans-serif">from the Noun Project</text></svg>